<svg width="88" height="31" viewBox="0 0 88 31" fill="none" xmlns="http://www.w3.org/2000/svg">
<path d="M21.7208 0.984652H28.7196L25.6169 19.7001C25.258 21.863 24.4315 23.7473 23.1375 25.353C21.853 26.9492 20.2143 28.1865 18.2214 29.0649C16.2285 29.9339 14.0089 30.3684 11.5626 30.3684C9.10685 30.3684 7.03365 29.9339 5.34298 29.0649C3.6523 28.1865 2.42916 26.9492 1.67355 25.353C0.917946 23.7473 0.714877 21.863 1.06435 19.7001L4.16706 0.984652H11.18L8.16234 19.0909C8.00177 20.0921 8.07733 20.9847 8.38902 21.7686C8.71015 22.5431 9.22963 23.157 9.94746 23.6104C10.6653 24.0543 11.5437 24.2763 12.5826 24.2763C13.6311 24.2763 14.5897 24.0543 15.4587 23.6104C16.3276 23.157 17.0455 22.5431 17.6122 21.7686C18.1789 20.9847 18.5425 20.0921 18.7031 19.0909L21.7208 0.984652ZM47.3253 9.74026C47.4008 8.67296 47.1175 7.84652 46.4752 7.26092C45.8424 6.67533 44.8412 6.38253 43.4717 6.38253C42.5649 6.38253 41.7904 6.50059 41.1482 6.73672C40.5059 6.9634 40.0006 7.28453 39.6322 7.70012C39.2639 8.10626 39.0325 8.57851 38.938 9.11688C38.853 9.54191 38.8766 9.91972 39.0089 10.2503C39.1411 10.5809 39.3725 10.8737 39.7031 11.1287C40.0431 11.3837 40.4634 11.6057 40.964 11.7946C41.474 11.9835 42.0455 12.1488 42.6783 12.2904L45.0584 12.8571C46.4374 13.1688 47.6322 13.5844 48.6429 14.1039C49.6629 14.6139 50.4894 15.2326 51.1222 15.9599C51.755 16.6777 52.1895 17.5041 52.4256 18.4392C52.6617 19.3743 52.6806 20.4227 52.4823 21.5844C52.18 23.4168 51.4575 24.9894 50.3146 26.3022C49.1812 27.6151 47.6983 28.621 45.866 29.32C44.0431 30.0189 41.9227 30.3684 39.5047 30.3684C37.0868 30.3684 35.0325 30.0047 33.3418 29.2774C31.6606 28.5407 30.4421 27.4309 29.6865 25.9481C28.9309 24.4652 28.7279 22.595 29.0773 20.3377H35.7786C35.6747 21.2727 35.7928 22.0519 36.1328 22.6753C36.4823 23.2987 37.0207 23.771 37.7479 24.0921C38.4752 24.4132 39.3536 24.5738 40.3831 24.5738C41.3276 24.5738 42.1541 24.4463 42.8625 24.1913C43.5803 23.9362 44.1517 23.5821 44.5767 23.1287C45.0112 22.6753 45.2757 22.1558 45.3701 21.5702C45.4646 21.0319 45.3749 20.5643 45.1009 20.1677C44.8365 19.771 44.3831 19.4262 43.7409 19.1334C43.108 18.8406 42.2769 18.5762 41.2473 18.34L38.343 17.6316C35.9439 17.046 34.1257 16.111 32.8884 14.8264C31.6606 13.5419 31.2261 11.7993 31.585 9.59858C31.8872 7.79457 32.6334 6.21724 33.8235 4.86659C35.023 3.51594 36.539 2.46753 38.3713 1.72137C40.2131 0.965762 42.2391 0.587957 44.4492 0.587957C46.6972 0.587957 48.5862 0.970483 50.1163 1.73554C51.6558 2.49115 52.7656 3.55844 53.4457 4.93743C54.1352 6.30697 54.3335 7.90791 54.0407 9.74026H47.3253ZM66.0407 0.984652L69.0018 22.2361H69.2426L79.2592 0.984652H87.108L72.5012 30H63.1647L58.1919 0.984652H66.0407Z" fill="white"/>
</svg>
